<svg xmlns="http://www.w3.org/2000/svg" width="32" height="24" viewBox="0 0 32 24" fill="none"><rect x="1.23071" y="1.53857" width="12.3077" height="12.3077" fill="#81EBE1"></rect><rect x="18.4614" y="1.53857" width="12.3077" height="12.3077" fill="#81EBE1"></rect><path d="M11.6923 0.307617H2.46154C1.10769 0.307617 0 1.41531 0 2.76916V12.6153C0 13.9692 1.10769 15.0768 2.46154 15.0768H11.6923V16.3076C11.6923 19.0276 9.48923 21.2307 6.76923 21.2307C6.09231 21.2307 5.53846 21.7845 5.53846 22.4615C5.53846 23.1384 6.09231 23.6922 6.76923 23.6922C10.8431 23.6922 14.1538 20.3815 14.1538 16.3076V2.76916C14.1538 1.41531 13.0462 0.307617 11.6923 0.307617ZM11.6923 12.6153H2.46154V2.76916H11.6923V12.6153ZM29.5385 0.307617H20.3077C18.9538 0.307617 17.8462 1.41531 17.8462 2.76916V12.6153C17.8462 13.9692 18.9538 15.0768 20.3077 15.0768H29.5385V16.3076C29.5385 19.0276 27.3354 21.2307 24.6154 21.2307C23.9385 21.2307 23.3846 21.7845 23.3846 22.4615C23.3846 23.1384 23.9385 23.6922 24.6154 23.6922C28.6892 23.6922 32 20.3815 32 16.3076V2.76916C32 1.41531 30.8923 0.307617 29.5385 0.307617ZM29.5385 12.6153H20.3077V2.76916H29.5385V12.6153Z" fill="black"></path></svg>