<svg xmlns="http://www.w3.org/2000/svg" width="32" height="34" viewBox="0 0 32 34" fill="none"><path d="M13 21.4512L5.5 27.9512L1 20.9512V12.9512L5 5.95117L12 2.45117H19L27 5.95117L30.5 12.4512L31 21.4512C29.5 23.7845 26.4 28.4512 26 28.4512C25.6 28.4512 21.1667 24.1178 19 21.9512L22 17.4512L20.5 11.4512L17.5 9.95117L12 10.4512L9.5 17.9512L13 21.4512Z" fill="#81EBE1"></path><path d="M10.956 2.52744C10.7778 1.85286 11.1978 1.15282 11.8724 0.987351C14.5835 0.274581 17.4218 0.274581 20.1456 0.974623C20.8329 1.15282 21.2402 1.84013 21.062 2.52744C20.922 3.08748 20.4129 3.48205 19.8274 3.48205C19.7256 3.48205 19.611 3.46932 19.5092 3.44386C17.2182 2.84565 14.7998 2.84565 12.5088 3.44386C11.8342 3.62206 11.1342 3.20203 10.956 2.52744ZM0.939009 14.1354C1.6136 14.3263 2.31364 13.9318 2.50456 13.2445C3.14096 10.9661 4.3374 8.87874 6.00477 7.18591C6.47571 6.66406 6.4248 5.86219 5.90295 5.39125C5.41928 4.9585 4.66833 4.9585 4.19739 5.40398C2.23727 7.40229 0.811728 9.87153 0.060774 12.5699C-0.130147 13.2445 0.264423 13.9445 0.939009 14.1354ZM19.4965 30.5546C17.2054 31.1528 14.7871 31.1528 12.4961 30.5546C11.8088 30.3891 11.1214 30.8092 10.956 31.4965C10.7905 32.1711 11.1978 32.8456 11.8597 33.0238C14.5707 33.7239 17.4218 33.7239 20.1329 33.0238C20.8075 32.8329 21.2148 32.1329 21.0239 31.4583C20.8457 30.7964 20.1711 30.4019 19.4965 30.5546ZM29.488 13.2445C29.6789 13.919 30.379 14.3136 31.0536 14.1354C31.7281 13.9445 32.1227 13.2445 31.9445 12.5699C31.1936 9.87153 29.768 7.40228 27.8079 5.41671C27.3242 4.90759 26.5224 4.88213 26.0133 5.35307C25.5041 5.83674 25.4787 6.6386 25.9496 7.14772C25.9623 7.16045 25.9751 7.17318 25.9878 7.18591C27.6424 8.87874 28.8516 10.9661 29.488 13.2445ZM31.9445 21.4159C31.1045 24.4579 29.4116 27.1817 27.057 29.2818C26.5351 29.7527 25.7332 29.7145 25.2623 29.1927C25.1859 29.1036 25.1223 29.0145 25.0714 28.9127C22.5258 23.8978 16.4036 21.8995 11.3887 24.4451C9.4668 25.4252 7.90125 26.9907 6.92119 28.9127C6.60299 29.5364 5.83931 29.7909 5.21563 29.4727C5.11381 29.4218 5.02471 29.3582 4.93561 29.2818C2.59365 27.1817 0.900825 24.4451 0.0480459 21.4031C-0.142875 20.7285 0.251695 20.0285 0.939009 19.8376C1.6136 19.6467 2.31364 20.0412 2.50456 20.7285C3.07732 22.7905 4.10829 24.687 5.53383 26.278C6.95937 24.216 8.95768 22.625 11.2742 21.6959C7.96489 19.0866 7.39213 14.2882 10.0014 10.9661C12.6106 7.65685 17.4091 7.08408 20.7311 9.69333C24.0404 12.3026 24.6132 17.1011 22.0039 20.4231C21.6348 20.894 21.2021 21.3268 20.7311 21.6959C23.0603 22.625 25.0587 24.216 26.4715 26.278C27.897 24.687 28.928 22.7905 29.5007 20.7285C29.6917 20.054 30.3917 19.6594 31.0663 19.8376C31.7409 20.0285 32.1354 20.7285 31.9572 21.4031L31.9445 21.4159ZM15.9963 20.8049C18.8092 20.8049 21.0875 18.5266 21.0875 15.7137C21.0875 12.9008 18.8092 10.6225 15.9963 10.6225C13.1834 10.6225 10.9051 12.9008 10.9051 15.7137C10.9051 18.5266 13.1834 20.8049 15.9963 20.8049Z" fill="black"></path></svg>